<?xml version="1.0" standalone="no"?>
<!DOCTYPE svg PUBLIC "-//W3C//DTD SVG 20010904//EN"
 "http://www.w3.org/TR/2001/REC-SVG-20010904/DTD/svg10.dtd">
<svg version="1.0" xmlns="http://www.w3.org/2000/svg"
 width="512.000000pt" height="512.000000pt" viewBox="0 0 512.000000 512.000000"
 preserveAspectRatio="xMidYMid meet">

<g transform="translate(0.000000,512.000000) scale(0.100000,-0.100000)"
fill="#000000" stroke="none">
<path d="M90 4633 c-41 -15 -40 52 -40 -2075 0 -2027 0 -2038 20 -2058 20 -20
29 -20 2496 -18 2438 3 2476 3 2490 22 19 27 18 60 -4 79 -17 16 -202 17
-2450 17 l-2432 0 0 1998 c0 1583 -3 2001 -12 2014 -15 19 -47 28 -68 21z"/>
<path d="M4389 3687 c-140 -53 -207 -215 -144 -348 l17 -36 -292 -394 c-161
-217 -296 -398 -300 -403 -5 -5 -29 -1 -56 8 -26 9 -64 16 -84 16 l-37 0 -157
262 -158 263 18 57 c39 130 -22 263 -145 316 -46 19 -146 19 -192 0 -121 -52
-187 -193 -145 -313 8 -26 12 -53 8 -60 -4 -6 -182 -236 -396 -509 -289 -369
-394 -495 -405 -491 -66 26 -162 13 -225 -30 l-36 -25 -68 92 c-37 51 -113
155 -169 232 l-101 140 37 41 c54 58 75 120 69 198 -6 72 -22 107 -70 156 -49
50 -111 75 -183 74 -143 -2 -247 -106 -249 -248 -1 -92 39 -163 126 -227 19
-14 27 9 -257 -718 l-65 -165 -83 0 c-72 0 -88 -3 -129 -28 -144 -84 -170
-273 -54 -395 147 -157 411 -64 433 153 6 60 -8 113 -44 167 -14 20 -22 42
-18 48 4 6 85 212 181 457 95 245 177 449 180 452 4 3 9 1 11 -5 2 -6 88 -128
191 -270 l188 -259 -1 -75 c0 -85 18 -132 70 -185 123 -123 332 -87 410 70 31
62 28 166 -6 227 l-27 46 392 499 391 500 40 -18 c49 -23 143 -24 192 -4 20 9
40 12 44 8 4 -5 70 -113 147 -240 l139 -233 -38 -39 c-91 -97 -90 -255 3 -350
54 -55 104 -75 183 -75 101 0 179 47 228 139 27 50 30 165 6 209 l-16 29 289
391 c160 215 298 399 308 410 15 16 21 16 41 5 39 -21 157 -16 204 8 182 96
192 348 18 450 -54 31 -158 41 -214 20z"/>
</g>
</svg>
