<?xml version="1.0" standalone="no"?>
<!DOCTYPE svg PUBLIC "-//W3C//DTD SVG 20010904//EN"
 "http://www.w3.org/TR/2001/REC-SVG-20010904/DTD/svg10.dtd">
<svg version="1.0" xmlns="http://www.w3.org/2000/svg"
 width="512.000000pt" height="512.000000pt" viewBox="0 0 512.000000 512.000000"
 preserveAspectRatio="xMidYMid meet">

<g transform="translate(0.000000,512.000000) scale(0.100000,-0.100000)"
fill="#000000" stroke="none">
<path d="M75 4910 c-11 -4 -31 -20 -45 -35 l-25 -27 -3 -1704 c-2 -1869 -6
-1746 56 -1778 15 -7 383 -125 817 -260 736 -230 793 -247 827 -236 20 5 49
25 63 42 23 27 26 39 22 76 -10 88 18 76 -804 333 l-743 232 0 1543 0 1542 48
-14 c26 -8 432 -135 902 -282 l855 -267 5 -697 5 -696 24 -26 c37 -39 88 -52
133 -33 77 32 73 -11 76 757 l3 685 902 281 902 282 5 -1003 5 -1004 28 -29
c53 -55 140 -48 182 14 20 28 20 56 23 1105 2 848 0 1085 -10 1115 -14 42 -66
84 -103 84 -13 0 -477 -142 -1031 -315 l-1008 -315 -1024 320 c-563 176 -1034
320 -1045 319 -12 0 -31 -4 -42 -9z"/>
<path d="M764 3904 c-36 -18 -64 -61 -64 -101 0 -33 31 -87 57 -101 32 -18
694 -222 717 -222 40 0 90 42 104 87 11 34 11 46 -2 76 -8 20 -25 43 -39 51
-30 20 -687 226 -719 226 -13 0 -37 -7 -54 -16z"/>
<path d="M3155 3815 c-181 -57 -341 -113 -355 -123 -58 -44 -66 -113 -19 -166
52 -60 59 -59 425 54 181 57 345 111 364 120 73 37 86 133 26 189 -48 45 -83
39 -441 -74z"/>
<path d="M773 3355 c-75 -32 -93 -129 -36 -186 23 -24 87 -47 365 -134 185
-58 352 -105 372 -105 27 0 45 8 72 33 31 28 36 39 36 78 1 50 -21 90 -59 108
-29 14 -651 207 -688 214 -16 3 -45 -1 -62 -8z"/>
<path d="M3500 3362 c-45 -6 -664 -203 -695 -220 -36 -21 -62 -85 -51 -127 11
-45 61 -85 106 -85 45 0 685 198 725 224 100 66 35 224 -85 208z"/>
<path d="M752 2754 c-26 -18 -52 -65 -52 -94 0 -36 31 -90 59 -104 43 -22 356
-116 385 -116 70 0 122 62 113 134 -9 64 -42 85 -235 144 -176 55 -233 62
-270 36z"/>
<path d="M3150 2538 c-172 -49 -1685 -502 -1718 -514 -49 -18 -82 -62 -82
-109 0 -42 34 -94 72 -109 17 -8 166 -54 330 -102 l298 -89 2 -622 3 -623 30
-30 c28 -27 45 -33 160 -54 595 -110 1210 -113 1844 -9 181 29 218 45 238 103
13 38 19 769 7 829 -8 41 -54 86 -94 95 -37 7 -87 -12 -115 -44 -19 -21 -20
-38 -23 -380 -2 -329 -4 -359 -20 -364 -27 -8 -286 -44 -422 -58 -79 -8 -256
-13 -485 -12 -365 0 -503 10 -800 57 l-80 13 -3 512 c-1 282 0 512 3 512 3 0
201 -58 440 -130 239 -71 445 -130 458 -130 12 0 377 106 810 235 433 129 789
235 792 235 3 0 5 -103 5 -229 l0 -229 -41 -98 c-45 -108 -48 -156 -12 -196
38 -44 111 -56 150 -26 7 6 29 3 59 -7 56 -19 102 -8 134 32 37 47 35 82 -9
192 l-41 101 0 316 c0 332 -3 357 -47 397 -17 15 -1704 527 -1783 541 -14 2
-41 0 -60 -6z m702 -430 c419 -125 641 -196 630 -200 -9 -4 -303 -93 -653
-197 l-636 -190 -634 189 c-349 105 -642 193 -652 197 -12 6 188 70 620 200
351 105 647 192 658 192 11 1 311 -85 667 -191z"/>
</g>
</svg>
