<svg xmlns="http://www.w3.org/2000/svg" enable-background="new 0 0 512 512" viewBox="0 0 512 512" id="levels"><path fill="#fff" stroke="#301a28" stroke-linecap="round" stroke-linejoin="round" stroke-miterlimit="10" stroke-width="4" d="M219.4 91.2 26 426.1h386.7z"></path><path fill="#fff" stroke="#301a28" stroke-linecap="round" stroke-linejoin="round" stroke-miterlimit="10" stroke-width="4" d="M26 426.1 9 358.9 219.4 91.2zM493.6 164.5H238.8c-4.1 0-7.4-3.3-7.4-7.4v-35.4c0-4.1 3.3-7.4 7.4-7.4h254.8c4.1 0 7.4 3.3 7.4 7.4v35.4c0 4.1-3.3 7.4-7.4 7.4zM493.6 225.9H238.8c-4.1 0-7.4-3.3-7.4-7.4v-35.4c0-4.1 3.3-7.4 7.4-7.4h254.8c4.1 0 7.4 3.3 7.4 7.4v35.4c0 4.1-3.3 7.4-7.4 7.4zM493.6 286.6H238.8c-4.1 0-7.4-3.3-7.4-7.4v-35.4c0-4.1 3.3-7.4 7.4-7.4h254.8c4.1 0 7.4 3.3 7.4 7.4v35.4c0 4.1-3.3 7.4-7.4 7.4zM493.6 348.3H238.8c-4.1 0-7.4-3.3-7.4-7.4v-35.4c0-4.1 3.3-7.4 7.4-7.4h254.8c4.1 0 7.4 3.3 7.4 7.4v35.4c0 4.1-3.3 7.4-7.4 7.4zM493.6 409H238.8c-4.1 0-7.4-3.3-7.4-7.4v-35.4c0-4.1 3.3-7.4 7.4-7.4h254.8c4.1 0 7.4 3.3 7.4 7.4v35.4c0 4.1-3.3 7.4-7.4 7.4z"></path></svg>