<?xml version="1.0" encoding="UTF-8" standalone="no"?>
<svg xmlns="http://www.w3.org/2000/svg"
     xmlns:dc="http://purl.org/dc/elements/1.1/"
     xmlns:cc="http://creativecommons.org/ns#"
     xmlns:rdf="http://www.w3.org/1999/02/22-rdf-syntax-ns#"
     viewBox="0 0 24 24">
    <title>Analytics Report Icon</title>
    <metadata>
        <rdf:RDF>
            <cc:Work rdf:about="">
                <dc:title>Analytics Report Icon</dc:title>
                <dc:description>A document with pie chart and line graph</dc:description>
                <dc:format>image/svg+xml</dc:format>
                <dc:type rdf:resource="http://purl.org/dc/dcmitype/StillImage" />
                <cc:license rdf:resource="http://creativecommons.org/licenses/by-sa/3.0/" />
             </cc:Work>
        </rdf:RDF>
    </metadata>
    <path d="M18 2H6a2 2 0 0 0-2 2v16a2 2 0 0 0 2 2h12a2 2 0 0 0 2-2V4a2 2 0 0 0-2-2z" fill="none" stroke="black" stroke-width="1"/>
    <path d="M19 5l-1-1v3h3l-1-1z" fill="black"/>
    <path d="M8 8h8M8 12h8M8 16h8" stroke="black" stroke-width="1.5"/>
    <path d="M6 6a4 4 0 0 1 4 4" stroke="black" stroke-width="1" fill="none"/>
    <path d="M6 6v4h4" fill="black"/>
    <circle cx="6" cy="6" r="3" stroke="black" stroke-width="1" fill="none"/>
    <path d="M14 14l2 2 2-2 2 2" stroke="black" stroke-width="1" fill="none"/>
    <circle cx="14" cy="14" r="0.5" fill="black"/>
    <circle cx="16" cy="16" r="0.5" fill="black"/>
    <circle cx="18" cy="14" r="0.5" fill="black"/>
    <circle cx="20" cy="16" r="0.5" fill="black"/>
</svg>