<?xml version="1.0" standalone="no"?>
<!DOCTYPE svg PUBLIC "-//W3C//DTD SVG 20010904//EN"
 "http://www.w3.org/TR/2001/REC-SVG-20010904/DTD/svg10.dtd">
<svg version="1.0" xmlns="http://www.w3.org/2000/svg"
 width="512.000000pt" height="512.000000pt" viewBox="0 0 512.000000 512.000000"
 preserveAspectRatio="xMidYMid meet">

<g transform="translate(0.000000,512.000000) scale(0.100000,-0.100000)"
fill="#000000" stroke="none">
<path d="M1445 4260 c-600 -413 -1100 -762 -1112 -776 -47 -52 -18 -133 55
-154 25 -7 742 -10 2180 -10 2313 0 2188 -3 2226 51 20 29 21 78 1 106 -18 26
61 -30 -1040 734 -478 332 -933 647 -1010 701 -112 78 -147 97 -175 97 -30 0
-192 -108 -1125 -749z m2098 -145 c460 -319 837 -583 837 -587 0 -5 -820 -8
-1822 -8 -1570 0 -1820 2 -1808 14 14 13 546 380 1438 993 l384 262 67 -47
c37 -26 444 -308 904 -627z"/>
<path d="M578 3151 l-33 -29 -7 -414 c-30 -1782 -29 -1719 -10 -1752 29 -50
59 -55 357 -55 290 0 324 5 357 50 19 25 19 45 3 1070 -8 574 -18 1058 -20
1076 -4 19 -18 42 -36 57 l-31 26 -274 0 -274 0 -32 -29z m452 -233 c0 -35 7
-454 15 -932 7 -479 12 -874 9 -878 -6 -10 -331 -11 -337 -1 -3 5 1 375 9 823
7 448 13 868 13 933 l1 117 145 0 145 0 0 -62z"/>
<path d="M1688 3151 c-40 -36 -34 83 -53 -1162 -10 -655 -12 -1005 -6 -1022 6
-14 22 -34 38 -44 25 -16 55 -18 328 -18 273 0 303 2 328 18 16 10 32 29 38
43 6 17 4 376 -6 1017 -19 1257 -13 1132 -53 1168 l-32 29 -275 0 -275 0 -32
-29z m452 -283 c1 -62 7 -482 14 -933 8 -451 12 -823 9 -827 -6 -11 -330 -10
-337 0 -2 4 2 395 9 867 8 473 15 893 15 933 l0 72 145 0 145 0 0 -112z"/>
<path d="M3917 3160 c-15 -12 -31 -29 -37 -39 -5 -10 -16 -473 -26 -1080 -16
-1053 -16 -1064 3 -1090 34 -45 67 -50 358 -50 297 0 328 5 356 54 16 28 16
93 3 1055 -8 564 -17 1044 -20 1068 -3 24 -15 54 -29 70 l-23 27 -279 3 c-272
3 -280 2 -306 -18z m446 -592 c4 -227 10 -650 14 -940 l6 -528 -171 0 -172 0
0 63 c0 53 29 1808 30 1815 0 1 65 2 143 2 l144 0 6 -412z"/>
<path d="M2804 3155 c-12 -8 -26 -27 -32 -42 -17 -43 -47 -2117 -31 -2155 23
-55 39 -58 370 -58 l301 0 35 35 36 36 -7 227 c-3 125 -11 594 -16 1042 -6
448 -13 830 -16 849 -3 18 -16 44 -29 57 l-24 24 -283 0 c-232 0 -287 -3 -304
-15z m446 -282 c0 -81 10 -786 23 -1601 l2 -172 -173 0 -174 0 6 273 c3 149 8
448 11 662 3 215 8 513 11 663 l6 272 144 0 144 0 0 -97z"/>
<path d="M344 736 l-34 -34 0 -262 0 -262 34 -34 34 -34 2177 0 c2013 0 2179
1 2205 17 16 9 33 27 39 40 7 15 11 116 11 274 0 272 -4 294 -57 318 -17 8
-657 11 -2199 11 l-2176 0 -34 -34z m4266 -296 l0 -130 -2050 0 -2050 0 0 130
0 130 2050 0 2050 0 0 -130z"/>
</g>
</svg>
