<?xml version="1.0" standalone="no"?>
<!DOCTYPE svg PUBLIC "-//W3C//DTD SVG 20010904//EN"
 "http://www.w3.org/TR/2001/REC-SVG-20010904/DTD/svg10.dtd">
<svg version="1.0" xmlns="http://www.w3.org/2000/svg"
 width="512.000000pt" height="512.000000pt" viewBox="0 0 512.000000 512.000000"
 preserveAspectRatio="xMidYMid meet">

<g transform="translate(0.000000,512.000000) scale(0.100000,-0.100000)"
fill="#000000" stroke="none">
<path d="M1280 4350 c-690 -423 -1261 -778 -1267 -787 -21 -27 -15 -72 12 -98
20 -21 34 -25 80 -25 l55 0 0 -255 0 -256 25 -24 c20 -21 34 -25 80 -25 l55 0
0 -135 c0 -131 1 -137 25 -160 13 -14 31 -25 40 -25 13 0 15 -77 15 -720 0
-643 -2 -720 -15 -720 -9 0 -27 -11 -40 -25 -24 -23 -25 -29 -25 -160 l0 -135
-55 0 c-46 0 -60 -4 -80 -25 -24 -23 -25 -29 -25 -160 l0 -135 -55 0 c-46 0
-60 -4 -80 -25 -25 -24 -25 -26 -25 -215 0 -189 0 -191 25 -215 l24 -25 2511
0 2511 0 24 25 c25 24 25 26 25 215 0 189 0 191 -25 215 -20 21 -34 25 -80 25
l-55 0 0 135 c0 131 -1 137 -25 160 -20 21 -34 25 -80 25 l-55 0 0 135 c0 131
-1 137 -25 160 -13 14 -31 25 -40 25 -13 0 -15 77 -15 720 0 643 2 720 15 720
9 0 27 11 40 25 24 23 25 29 25 160 l0 135 55 0 c46 0 60 4 80 25 l25 24 0
256 0 255 55 0 c46 0 60 4 80 25 30 29 33 74 8 103 -31 35 -2505 1546 -2538
1549 -25 3 -245 -129 -1285 -767z m2384 -80 l1085 -665 -104 -3 -104 -3 -343
207 c-189 114 -557 336 -818 494 -261 158 -548 331 -637 385 -127 76 -168 97
-190 93 -44 -6 -850 -498 -862 -526 -6 -12 -11 -32 -11 -43 0 -30 44 -69 78
-69 19 0 147 72 403 226 205 125 382 229 391 231 11 3 333 -186 843 -493 l826
-499 -831 -3 c-456 -1 -1203 -1 -1660 0 l-829 3 330 200 c182 110 340 210 350
224 53 67 -26 150 -104 110 -12 -7 -219 -131 -459 -276 l-437 -264 -104 3
-104 3 616 378 c339 208 827 508 1086 667 259 159 478 288 487 287 9 -1 505
-301 1102 -667z m1136 -910 l0 -80 -815 0 -816 0 -24 -25 c-33 -32 -33 -78 0
-110 l24 -25 816 0 815 0 0 -40 0 -40 -2240 0 -2240 0 0 40 0 40 1295 0 1296
0 24 25 c33 32 33 78 0 110 l-24 25 -1296 0 -1295 0 0 80 0 80 2240 0 2240 0
0 -80z m-3840 -560 l0 -80 -240 0 -240 0 0 80 0 80 240 0 240 0 0 -80z m480
-55 c0 -131 1 -137 25 -160 13 -14 31 -25 40 -25 13 0 15 -77 15 -720 0 -643
-2 -720 -15 -720 -9 0 -27 -11 -40 -25 -24 -23 -25 -29 -25 -160 l0 -135 -160
0 -160 0 0 135 c0 131 -1 137 -25 160 -13 14 -31 25 -40 25 -13 0 -15 77 -15
720 0 643 2 720 15 720 9 0 27 11 40 25 24 23 25 29 25 160 l0 135 160 0 160
0 0 -135z m640 55 l0 -80 -240 0 -240 0 0 80 0 80 240 0 240 0 0 -80z m800
-55 c0 -131 1 -137 25 -160 13 -14 31 -25 40 -25 13 0 15 -77 15 -720 0 -643
-2 -720 -15 -720 -9 0 -27 -11 -40 -25 -24 -23 -25 -29 -25 -160 l0 -135 -320
0 -320 0 0 135 c0 131 -1 137 -25 160 -13 14 -31 25 -40 25 -13 0 -15 77 -15
720 0 643 2 720 15 720 9 0 27 11 40 25 24 23 25 29 25 160 l0 135 320 0 320
0 0 -135z m640 55 l0 -80 -240 0 -240 0 0 80 0 80 240 0 240 0 0 -80z m480
-55 c0 -131 1 -137 25 -160 13 -14 31 -25 40 -25 13 0 15 -77 15 -720 0 -643
-2 -720 -15 -720 -9 0 -27 -11 -40 -25 -24 -23 -25 -29 -25 -160 l0 -135 -160
0 -160 0 0 135 c0 131 -1 137 -25 160 -13 14 -31 25 -40 25 -13 0 -15 77 -15
720 0 643 2 720 15 720 9 0 27 11 40 25 24 23 25 29 25 160 l0 135 160 0 160
0 0 -135z m640 55 l0 -80 -240 0 -240 0 0 80 0 80 240 0 240 0 0 -80z m-3760
-960 l0 -720 -160 0 -160 0 0 720 0 720 160 0 160 0 0 -720z m1120 0 l0 -720
-160 0 -160 0 0 720 0 720 160 0 160 0 0 -720z m1440 0 l0 -720 -160 0 -160 0
0 720 0 720 160 0 160 0 0 -720z m1120 0 l0 -720 -160 0 -160 0 0 720 0 720
160 0 160 0 0 -720z m-3600 -960 l0 -80 -240 0 -240 0 0 80 0 80 240 0 240 0
0 -80z m1120 0 l0 -80 -240 0 -240 0 0 80 0 80 240 0 240 0 0 -80z m1440 0 l0
-80 -240 0 -240 0 0 80 0 80 240 0 240 0 0 -80z m1120 0 l0 -80 -240 0 -240 0
0 80 0 80 240 0 240 0 0 -80z m160 -320 l0 -80 -2240 0 -2240 0 0 80 0 80
2240 0 2240 0 0 -80z m160 -320 l0 -80 -2400 0 -2400 0 0 80 0 80 2400 0 2400
0 0 -80z"/>
<path d="M2105 4215 c-25 -24 -25 -26 -25 -215 0 -189 0 -191 25 -215 l24 -25
431 0 431 0 24 25 c25 24 25 26 25 215 0 189 0 191 -25 215 l-24 25 -431 0
-431 0 -24 -25z m775 -215 l0 -80 -320 0 -320 0 0 80 0 80 320 0 320 0 0 -80z"/>
</g>
</svg>
