<?xml version="1.0" standalone="no"?>
<!DOCTYPE svg PUBLIC "-//W3C//DTD SVG 20010904//EN"
 "http://www.w3.org/TR/2001/REC-SVG-20010904/DTD/svg10.dtd">
<svg version="1.0" xmlns="http://www.w3.org/2000/svg"
 width="512.000000pt" height="512.000000pt" viewBox="0 0 512.000000 512.000000"
 preserveAspectRatio="xMidYMid meet">

<g transform="translate(0.000000,512.000000) scale(0.100000,-0.100000)"
fill="#000000" stroke="none">
<path d="M994 5110 c-12 -4 -31 -21 -43 -36 l-21 -27 0 -1293 c0 -815 4 -1302
10 -1318 5 -14 24 -35 42 -46 33 -20 51 -20 1578 -20 1527 0 1545 0 1578 20
18 11 37 32 42 46 6 16 10 503 10 1319 l0 1295 -29 32 -29 33 -1559 2 c-857 1
-1568 -2 -1579 -7z m2976 -540 l0 -330 -1410 0 -1410 0 0 330 0 330 1410 0
1410 0 0 -330z m0 -1265 l0 -715 -1410 0 -1410 0 0 715 0 715 1410 0 1410 0 0
-715z"/>
<path d="M1484 4670 c-94 -38 -78 -187 22 -206 65 -12 134 41 134 104 0 76
-84 131 -156 102z"/>
<path d="M1924 4670 c-36 -14 -64 -59 -64 -101 0 -122 176 -147 211 -30 27 90
-59 167 -147 131z"/>
<path d="M2484 4670 c-66 -27 -84 -117 -35 -172 l29 -33 581 0 581 0 27 28
c23 23 28 36 28 77 0 41 -5 54 -28 77 l-27 28 -568 2 c-312 1 -577 -2 -588 -7z"/>
<path d="M718 1599 c-138 -16 -293 -129 -356 -259 -81 -171 -60 -337 63 -506
15 -21 14 -23 -38 -52 -214 -121 -362 -357 -383 -612 -8 -88 7 -130 56 -155
44 -23 1396 -23 1440 0 49 25 64 67 56 155 -21 259 -184 512 -399 622 -37 19
-38 20 -23 41 93 128 124 237 106 370 -36 250 -267 426 -522 396z m167 -243
c89 -41 138 -119 138 -221 1 -133 -111 -245 -243 -245 -83 0 -172 53 -212 127
-34 63 -41 109 -27 172 32 151 202 233 344 167z m76 -718 c94 -35 152 -71 215
-135 73 -74 113 -144 148 -260 l7 -23 -551 0 -551 0 7 23 c36 118 78 191 151
263 78 77 193 136 303 158 60 11 206 -3 271 -26z"/>
<path d="M2498 1599 c-138 -16 -293 -129 -356 -259 -81 -171 -60 -337 63 -506
15 -21 14 -23 -38 -52 -214 -121 -362 -357 -383 -612 -8 -88 7 -130 56 -155
44 -23 1396 -23 1440 0 49 25 64 67 56 155 -21 259 -184 512 -399 622 -37 19
-38 20 -23 41 94 129 126 244 106 374 -40 250 -268 421 -522 392z m167 -243
c89 -41 138 -119 138 -221 1 -133 -111 -245 -243 -245 -83 0 -172 53 -212 127
-34 63 -41 109 -27 172 32 151 202 233 344 167z m76 -718 c94 -35 152 -71 215
-135 73 -74 113 -144 148 -260 l7 -23 -551 0 -551 0 7 23 c36 118 78 191 151
263 78 77 193 136 303 158 60 11 206 -3 271 -26z"/>
<path d="M4278 1599 c-138 -16 -293 -129 -356 -259 -81 -171 -60 -337 63 -506
15 -21 14 -23 -38 -52 -214 -121 -362 -357 -383 -612 -8 -88 7 -130 56 -155
44 -23 1396 -23 1440 0 49 25 64 67 56 155 -21 259 -184 512 -399 622 -37 19
-38 20 -23 41 94 129 126 244 106 374 -40 250 -268 421 -522 392z m167 -243
c89 -41 138 -119 138 -221 1 -133 -111 -245 -243 -245 -83 0 -172 53 -212 127
-34 63 -41 109 -27 172 32 151 202 233 344 167z m76 -718 c94 -35 152 -71 215
-135 73 -74 113 -144 148 -260 l7 -23 -551 0 -551 0 7 23 c36 118 78 191 151
263 78 77 193 136 303 158 60 11 206 -3 271 -26z"/>
</g>
</svg>
