<?xml version="1.0" standalone="no"?>
<!DOCTYPE svg PUBLIC "-//W3C//DTD SVG 20010904//EN"
 "http://www.w3.org/TR/2001/REC-SVG-20010904/DTD/svg10.dtd">
<svg version="1.0" xmlns="http://www.w3.org/2000/svg"
 width="512.000000pt" height="512.000000pt" viewBox="0 0 512.000000 512.000000"
 preserveAspectRatio="xMidYMid meet">

<g transform="translate(0.000000,512.000000) scale(0.100000,-0.100000)"
fill="#000000" stroke="none">
<path d="M2440 4704 c-331 -49 -601 -226 -761 -500 -57 -98 -81 -156 -111
-264 -20 -73 -23 -108 -23 -255 0 -205 17 -281 100 -450 219 -448 720 -669
1202 -529 267 77 498 267 620 509 78 154 103 253 110 435 6 174 -13 286 -73
427 -115 272 -325 472 -600 572 -133 49 -340 73 -464 55z m315 -225 c285 -68
513 -291 597 -584 31 -109 31 -303 0 -416 -22 -82 -75 -196 -125 -268 -71
-104 -208 -216 -331 -271 -123 -54 -179 -65 -341 -64 -141 0 -156 2 -245 32
-267 89 -469 302 -542 571 -30 111 -31 307 -1 413 73 253 221 429 455 537 167
78 346 95 533 50z"/>
<path d="M2165 2449 c-964 -98 -1704 -875 -1752 -1841 l-6 -127 35 -35 36 -36
2071 0 c2277 0 2113 -5 2146 60 18 34 19 112 4 248 -87 804 -651 1466 -1423
1672 -205 55 -279 62 -666 65 -195 2 -395 -1 -445 -6z m854 -215 c572 -84
1047 -426 1306 -942 93 -185 158 -410 171 -594 l7 -88 -1943 0 -1943 0 7 87
c8 114 37 248 81 381 154 460 513 846 962 1035 163 69 257 94 493 130 14 3
189 5 389 6 283 1 387 -2 470 -15z"/>
</g>
</svg>
